<?xml version="1.0" encoding="UTF-8"?>
<svg id="Capa_1" xmlns="http://www.w3.org/2000/svg" version="1.1" viewBox="0 0 31.9 32">
  <!-- Generator: Adobe Illustrator 29.0.1, SVG Export Plug-In . SVG Version: 2.1.0 Build 192)  -->
  <defs>
    <style>
      .st0 {
        fill: #141112;
      }

      .st1 {
        fill: #faf8f9;
      }

      .st2 {
        fill: #f4acc8;
      }
    </style>
  </defs>
  <circle class="st2" cx="15.9" cy="16" r="15.7"/>
  <g>
    <path class="st1" d="M14.5,6.7c.2,0,.4-.1.2-.3.2,0,.6-.1.5-.3,0,0,.2,0,.3,0,.2,0-.1-.1,0-.2h.1c0-.1.4,0,.4,0,0-.3.1-.2.2-.2s0-.1.1-.1c.1,0,.4,0,.4-.3.1,0,0,.2.1.1,0-.3.2-.1.3-.2.3-.1.9-.5,1.3-.7s1.7-1,2.1-1.1.3,0,.4,0,.1-.2.2-.3c.1,0,.3,0,.5,0s.4-.2.6-.3c1-.3,1.8-.6,2.9-.5s.8.1,1,.3.6.6.6.7c0,.2,0,.7,0,.9s-.2.8-.3.9c-.4.9-1.9,2.7-2.7,3.4s-2,1.8-2.9,2.3c-.4-.2-.7-.2-.3-.7,1.6-1.2,3.5-2.8,4.5-4.6s1.2-2,0-2.1c-2-.2-6.3,2-8.1,3l-.5.4c-.5.3-.5.4-.9.7s-.2,0-.3.1,0,.2,0,.2c0,0-.4,0-.4,0s0,.2,0,.2c-.2.2-.7.5-1,.6s-.2,0-.2,0c0,0,0,.3,0,.3s-.3,0-.4,0-.4.5-.4.5c-.9.7-1.3.9-1.9,1.8s-.5.4-.4.8h-.1c0,0,0,.3,0,.4s.1,0,.1.1c0,0,0,.2,0,.3s.3,0,.4,0,.2,0,.3.2c.7.3,1.4.5,2.2.7s.7,0,1.1.2.4.2.7.3c1.8.3,3.3.7,4.9,1.3s1.8.7,2.4,1.5.7.1,1.1,0c.6-.1,1.3-.2,2.1-.3s1.4-.4,1.5-.3,0,.4.3.3c0,0-.4.3-.4.4-.6,0-.3,0-.5.3,0,0,0-.3,0-.3-1.1.2-2.2.5-3.3.7,0,.2,0,.4.2.4,0,.5.1,1.4,0,1.9-.3,1.2-1.5,2.8-2.3,3.7s-1.3,1.4-1.8,1.7-.3.4-.3.4c0,0-.2,0-.3,0s-.3.4-.3.4c-.1,0-.6.2-.7.2s-.5.6-.7.6,0-.2-.1-.1c0,.3,0,.2-.1.2,0-.1-.2,0-.3,0-2.3,1.1-4.6,1.8-7.2,1.6s-3.2-.7-3.4-2c-.3-2.1,2.1-3.8,3.6-4.9,0,0,0-.1,0-.1,0,0,.5-.1.5-.1,0,0,.2-.3.3-.3.1,0,.4,0,.4,0s0-.3,0-.3c0,0,.6.2.4-.2.2.1.1,0,.2,0,.4-.1.6-.2,1-.3,1.9-.9,4.2-1.7,6.1-2.2s1.4-.3,2-.5c.3.2.9-.1,1.3-.2-2.2-1.8-5.4-2-8.1-2.6s-4.2-.9-4.2-2.7,3.4-4.3,4.8-5.3.5-.3.7-.5ZM9.8,22.6s.1.1,0,.1c-.3-.1-.3.2-.5.3s-.2,0-.3,0c-.8.5-2.2,1.9-2.6,2.7-.6,1.3.4,2,1.5,2.4,1.7.5,4,0,5.6-.5s.1-.2.2-.2c.8-.2,1.6-.5,2.2-1,1.7-.9,3.3-2.4,4.4-4s1.7-2.7,1.2-4.2c-.2,0-3.1.7-3.6.8-2.2.6-4.5,1.4-6.6,2.4s-1.8.9-1.8,1Z"/>
    <path class="st0" d="M14.5,6.7c-.2.2-.4.3-.7.5-1.4,1-4.9,3.3-4.8,5.3s2.9,2.4,4.2,2.7c2.7.6,5.9.8,8.1,2.6-.3,0-1,.3-1.3.2s0-.1-.2-.2c-2.3-1.3-4.9-1.5-7.4-2.1s-5-1.1-4.1-3.6,4.5-4.4,6.1-5.3Z"/>
    <path class="st0" d="M9.1,22.2c-1.4,1.2-3.8,2.8-3.6,4.9s2.2,2,3.4,2c2.6.2,4.9-.5,7.2-1.6s.3-.2.3,0c-1,.5-1.9,1-3,1.4-2.1.7-7,1.5-8.4-.7s2.5-5,4.1-6Z"/>
    <path class="st0" d="M16.4,6.9l.5-.4c1.8-1.1,6.1-3.2,8.1-3s.2,1.6,0,2.1c-1,1.8-2.9,3.4-4.5,4.6-.3.5-.1.5.3.7-.3.2-.5.5-.9.4s-.5-.2-.4-.5.3-.4.3-.5,0,0,.1,0c1.5-1.2,3.7-3.2,4.5-5s.7-1.4-.4-1.5c-2.1,0-5.8,1.9-7.7,2.9Z"/>
    <path class="st0" d="M23.1,18.4c-.2,0-.2-.2-.2-.4,1.1-.2,2.2-.5,3.3-.7s0,.2,0,.3c-.3.3-2.7.5-3.2.7Z"/>
    <path class="st0" d="M9.8,22.6c0-.1,1.6-.9,1.8-1,2.1-1,4.4-1.7,6.6-2.4s3.4-.9,3.6-.8c.6,1.5-.4,3-1.2,4.2s-2.7,3.1-4.4,4c1.8-1.3,5.3-4.8,5-7.2s-.1-.3-.1-.5c-2.5.5-5,1.2-7.4,2.1l-3.8,1.6Z"/>
  </g>
</svg>